<?xml version="1.0" standalone="no"?>
<!DOCTYPE svg PUBLIC "-//W3C//DTD SVG 20010904//EN"
 "http://www.w3.org/TR/2001/REC-SVG-20010904/DTD/svg10.dtd">
<svg version="1.0" xmlns="http://www.w3.org/2000/svg"
 width="484.000000pt" height="484.000000pt" viewBox="0 0 484.000000 484.000000"
 preserveAspectRatio="xMidYMid meet">
<metadata>
Created by potrace 1.11, written by Peter Selinger 2001-2013
</metadata>
<g transform="translate(0.000000,484.000000) scale(0.100000,-0.100000)"
fill="#000000" stroke="none">
<path d="M2920 4820 c8 -14 8 -20 0 -20 -6 0 -8 -4 -5 -10 3 -5 -11 -3 -32 4
-24 8 -46 10 -60 5 -29 -11 -30 -39 -2 -39 11 0 17 -4 14 -10 -3 -5 3 -10 14
-10 12 0 21 -4 21 -10 0 -5 -11 -10 -25 -10 -16 0 -25 6 -25 15 0 14 -22 18
-107 19 -12 0 -20 4 -17 7 2 4 0 10 -6 14 -16 10 -50 -14 -50 -35 0 -17 5 -19
32 -13 24 5 29 3 23 -7 -6 -10 -2 -12 15 -7 23 6 80 -16 80 -32 0 -4 10 -7 22
-7 33 1 36 -32 4 -40 -14 -3 -26 -10 -26 -14 0 -10 26 -20 51 -20 10 0 19 -5
19 -11 0 -8 12 -9 38 -4 20 4 70 9 110 10 71 3 73 2 68 -19 -4 -17 1 -24 27
-36 21 -9 26 -15 16 -18 -22 -4 -18 -101 5 -118 21 -15 20 -21 -5 -27 -20 -5
-20 -6 -2 -24 10 -10 27 -19 38 -18 11 0 20 -7 20 -15 0 -8 11 -16 25 -18 46
-5 67 -22 62 -48 -3 -19 0 -24 17 -24 11 0 21 -5 21 -11 0 -6 -6 -9 -13 -6
-16 6 -19 -25 -3 -35 18 -13 36 -9 36 7 0 8 9 15 19 15 11 0 26 9 34 20 11 16
22 19 53 15 111 -15 109 -14 105 -57 -2 -12 5 -18 18 -18 12 0 21 -6 21 -14 0
-22 -11 -46 -22 -46 -5 0 -6 5 -3 10 3 6 2 10 -3 10 -18 0 -22 -44 -6 -61 10
-11 13 -26 8 -44 -6 -25 -5 -28 15 -22 27 7 27 -1 0 -24 -11 -10 -27 -15 -35
-12 -17 6 -18 -6 -1 -28 7 -9 18 -14 25 -12 6 3 12 -1 12 -7 0 -7 9 -9 23 -5
19 5 20 5 4 -5 -9 -6 -15 -15 -12 -20 3 -5 -4 -11 -15 -15 -41 -13 -18 -20 53
-17 103 4 98 3 86 19 -8 9 -8 13 -1 13 6 0 13 -4 16 -9 3 -4 35 -11 72 -14 36
-4 72 -11 78 -16 7 -6 22 -8 34 -4 13 3 22 1 22 -6 0 -7 -4 -9 -10 -6 -5 3
-10 1 -10 -5 0 -7 -6 -10 -14 -7 -9 4 -12 0 -9 -13 3 -10 -1 -21 -8 -25 -8 -6
-10 -4 -4 5 19 31 -75 42 -107 13 -12 -11 -32 -16 -52 -15 -21 2 -54 -8 -93
-27 -46 -23 -73 -31 -109 -29 -69 2 -216 -9 -237 -17 -10 -4 -16 -14 -13 -21
7 -19 -83 -12 -95 7 -8 12 -11 12 -19 -1 -8 -13 -11 -12 -24 5 -10 13 -15 15
-16 6 0 -11 -3 -11 -16 0 -13 10 -17 10 -24 -1 -6 -9 -22 -11 -63 -7 -63 8
-210 -8 -215 -23 -2 -6 -9 -7 -15 -3 -7 3 -9 2 -4 -2 4 -5 15 -10 25 -12 79
-13 80 -14 87 -55 5 -29 10 -37 18 -29 6 6 46 11 89 11 45 0 78 4 78 10 0 6
-18 10 -40 10 -22 0 -40 5 -40 10 0 6 18 10 40 10 22 0 40 -4 40 -10 0 -5 9
-14 20 -20 18 -9 23 -7 38 20 16 30 19 31 64 25 59 -7 101 2 94 21 -7 17 25
19 42 2 17 -17 15 -28 -5 -28 -15 0 -16 -2 -3 -10 12 -7 7 -12 -20 -24 -19 -8
-34 -18 -32 -22 2 -4 -15 -13 -38 -20 -23 -7 -49 -19 -58 -27 -9 -8 -24 -16
-33 -20 -9 -3 -30 -23 -47 -44 l-30 -39 56 7 c31 3 61 2 66 -2 6 -6 5 -9 -2
-9 -7 0 -12 -8 -13 -17 0 -12 -2 -13 -6 -5 -4 10 -9 9 -20 -5 -8 -10 -12 -13
-10 -8 3 6 -9 11 -26 12 -28 1 -29 1 -9 -7 26 -11 27 -16 6 -24 -8 -3 -12 -2
-9 4 3 6 -1 10 -10 10 -10 0 -13 -5 -9 -12 4 -7 4 -10 -1 -6 -4 4 -14 3 -22
-3 -10 -9 -13 -8 -13 5 0 9 -4 16 -10 16 -5 0 -10 -5 -10 -11 0 -7 -10 -9 -25
-5 -17 4 -31 1 -43 -11 -22 -21 -19 -20 -104 -27 -56 -4 -67 -3 -73 12 -4 10
1 21 11 29 10 7 15 16 11 19 -3 3 4 17 16 29 16 17 35 24 67 26 25 1 50 6 56
11 7 5 24 7 39 4 19 -4 25 -1 22 8 -4 10 1 12 16 9 16 -4 18 -2 8 5 -10 8 -6
11 18 17 38 8 41 31 4 38 -35 7 -133 -3 -133 -14 0 -4 -18 -10 -40 -14 -22 -4
-40 -10 -40 -13 0 -4 -14 -13 -30 -21 -24 -10 -29 -17 -24 -33 5 -17 3 -18
-14 -9 -26 14 -191 3 -219 -15 -12 -8 -31 -14 -42 -14 -11 0 -23 -4 -26 -10
-6 -9 -169 -6 -279 6 l-49 5 16 -23 c11 -16 23 -22 44 -21 43 4 58 -4 41 -21
-20 -19 -138 -7 -138 14 0 5 -8 11 -17 13 -13 3 -14 5 -3 6 8 0 21 10 28 22
13 20 12 21 -20 14 -68 -13 -73 -16 -54 -27 9 -5 14 -14 10 -19 -3 -6 4 -13
16 -16 13 -4 19 -11 15 -20 -3 -11 -1 -13 10 -9 8 3 15 2 15 -2 0 -10 26 -13
115 -16 127 -4 121 -3 99 -27 -19 -22 -19 -22 6 -15 21 5 20 3 -5 -8 l-29 -14
37 -10 c46 -13 77 -5 77 19 0 21 11 24 27 8 6 -6 61 -12 123 -15 116 -5 135
-9 125 -25 -4 -5 -1 -9 5 -9 6 0 13 7 16 15 4 8 13 15 22 15 34 0 -19 -38 -61
-43 -25 -3 -48 -14 -59 -26 -9 -12 -21 -21 -27 -21 -14 0 -14 -13 0 -27 8 -8
5 -13 -11 -18 -13 -4 -19 -12 -16 -21 6 -16 -3 -18 -24 -4 -10 6 -20 4 -30 -5
-17 -16 -45 -1 -45 25 0 24 -69 25 -119 1 -23 -12 -52 -21 -64 -21 -12 0 -32
-10 -44 -22 -12 -12 -23 -17 -25 -12 -2 5 -24 8 -51 7 -34 -2 -40 0 -22 6 23
7 22 8 -14 14 -46 7 -116 -8 -143 -31 -10 -10 -25 -18 -33 -20 -7 -2 -18 -10
-24 -17 -18 -23 -68 -38 -78 -23 -11 18 -10 50 2 43 6 -3 10 -2 10 4 0 5 -9 9
-20 8 -11 -1 -20 -5 -20 -10 0 -4 -4 -5 -10 -2 -5 3 -10 1 -10 -5 0 -7 7 -10
15 -6 17 6 19 -2 5 -24 -8 -12 -11 -13 -19 -1 -6 9 -11 10 -15 2 -17 -27 -26
-8 -20 42 6 48 5 50 -9 32 -11 -14 -25 -19 -50 -17 -41 4 -58 -13 -25 -24 30
-9 40 -25 26 -41 -12 -14 -52 -18 -44 -4 8 13 -15 28 -52 34 -29 5 -32 3 -28
-19 5 -23 3 -24 -67 -25 -40 -1 -87 -1 -106 1 -19 1 -55 -7 -80 -18 -25 -11
-66 -25 -91 -32 -58 -16 -436 -33 -515 -24 -33 4 -205 8 -382 8 l-323 1 0
-117 0 -117 27 3 c16 2 29 4 30 5 3 2 382 12 495 13 54 1 98 5 98 9 0 4 17 7
38 7 45 -1 433 11 481 14 19 2 36 -2 38 -8 2 -7 -10 -10 -34 -8 -23 1 -45 -4
-55 -13 -14 -13 -63 -16 -280 -19 -436 -7 -672 -16 -686 -27 -9 -7 -16 -7 -24
1 -13 13 -49 15 -97 6 -21 -5 -31 -12 -31 -25 0 -21 21 -25 50 -9 10 6 21 6
24 2 8 -13 93 -14 101 -2 5 7 22 9 47 5 26 -5 38 -4 34 3 -6 11 167 20 504 26
214 5 241 -5 55 -20 -121 -9 -150 -12 -290 -28 -66 -8 -194 -22 -285 -31 -220
-21 -240 -25 -240 -42 0 -16 3 -16 135 6 270 44 456 61 690 61 246 0 311 7
331 34 12 16 29 23 20 7 -8 -12 48 0 56 13 5 8 14 7 29 -2 20 -13 21 -12 16 7
-5 20 -2 22 47 19 32 -2 53 -7 53 -14 0 -7 -6 -10 -14 -7 -7 3 -13 0 -13 -6 0
-6 6 -12 13 -12 6 -1 23 -3 37 -4 14 -2 31 2 38 7 6 6 12 7 12 2 0 -9 174 -8
198 1 6 2 12 10 12 16 0 9 -3 9 -14 0 -7 -6 -21 -8 -31 -5 -31 12 6 23 67 19
33 -3 58 0 58 5 0 14 38 12 42 -1 2 -7 13 -9 26 -5 12 4 19 12 16 18 -4 6 1 8
15 3 13 -4 28 -1 36 5 10 8 15 9 15 2 0 -6 -8 -16 -17 -21 -17 -10 -17 -10 -1
-11 9 0 20 5 23 10 8 14 85 13 85 -1 0 -7 -13 -10 -34 -7 -19 2 -33 1 -31 -3
3 -3 31 -9 62 -13 62 -7 92 -19 75 -30 -6 -4 -9 -15 -7 -26 2 -11 -1 -22 -6
-25 -5 -4 -7 -10 -4 -15 3 -5 -20 -12 -50 -15 -30 -4 -55 -11 -55 -15 0 -5 19
-6 43 -4 23 3 56 6 72 7 42 3 75 16 75 29 0 6 2 9 5 6 3 -3 22 10 42 29 21 18
43 31 51 28 7 -2 11 -1 8 4 -7 11 59 62 69 53 3 -4 13 2 21 12 8 11 14 16 14
12 0 -4 7 0 16 8 8 9 23 16 32 16 12 0 10 -5 -8 -17 -14 -9 -38 -27 -54 -40
l-29 -24 29 7 c27 6 84 39 143 82 13 9 28 16 33 14 4 -1 7 1 7 5 -3 21 2 33
15 33 8 0 17 7 20 16 3 8 10 12 16 9 5 -3 10 0 10 7 0 10 3 9 10 -2 8 -12 10
-12 15 2 4 9 14 19 22 22 9 4 0 -11 -18 -32 -19 -21 -38 -37 -43 -34 -5 3 -6
0 -2 -7 8 -12 30 -1 48 24 4 5 9 7 13 4 8 -9 -76 -109 -91 -109 -8 0 -11 -6
-8 -15 5 -12 11 -10 37 8 18 12 34 25 37 28 3 3 26 18 53 33 49 29 67 19 20
-11 -43 -28 -92 -78 -68 -69 17 6 17 4 -5 -19 -13 -14 -28 -24 -33 -22 -5 1
-23 -10 -39 -25 -17 -15 -36 -28 -44 -28 -8 0 -14 -4 -14 -8 0 -4 -13 -13 -30
-19 -18 -7 -30 -18 -30 -29 0 -14 -3 -15 -12 -6 -15 15 -28 15 -28 1 0 -5 5
-7 10 -4 6 3 10 2 10 -4 0 -5 -6 -14 -13 -18 -8 -4 -16 -16 -20 -26 -4 -9 -20
-20 -37 -24 -26 -5 -31 -10 -26 -27 4 -18 0 -21 -33 -22 -41 -2 -122 -41 -129
-64 -3 -8 1 -11 10 -7 9 3 22 0 29 -6 11 -10 11 -9 1 4 -10 13 -8 19 7 33 15
14 19 14 24 3 3 -8 0 -20 -6 -26 -8 -8 -7 -11 6 -11 9 0 17 3 17 8 0 4 23 20
50 37 28 16 50 34 50 40 0 5 4 4 9 -4 5 -7 14 -10 21 -6 9 6 9 9 -1 16 -10 6
-8 9 9 9 12 0 22 4 22 10 0 5 14 16 30 25 17 9 30 22 30 30 0 18 20 20 20 3 1
-7 8 0 16 15 8 15 19 25 23 22 5 -3 12 2 15 11 3 8 13 14 22 12 9 -2 19 4 21
12 4 13 3 13 -6 0 -9 -13 -11 -13 -11 3 0 9 7 17 15 17 7 0 19 -8 24 -17 9
-16 10 -16 11 4 0 12 -6 24 -12 26 -7 3 -2 6 11 6 19 1 21 4 12 15 -8 10 -9
16 -1 21 5 3 10 2 10 -4 0 -6 7 -7 17 -4 12 5 14 3 8 -7 -5 -9 -4 -11 4 -6 6
4 9 12 5 17 -3 5 0 8 7 7 7 -2 13 2 14 7 0 6 27 35 60 65 33 29 65 60 71 68 7
9 13 11 17 5 4 -5 -12 -25 -33 -43 -22 -19 -40 -40 -40 -48 0 -12 3 -12 15 -2
8 7 13 15 11 19 -3 4 10 12 27 19 l32 11 -41 -37 c-22 -20 -40 -43 -39 -49 2
-7 3 -16 4 -19 0 -4 9 0 19 7 14 11 15 11 5 -1 -14 -15 -46 -24 -38 -10 12 20
-15 18 -41 -2 -15 -13 -24 -16 -20 -8 5 8 -5 -1 -22 -20 -16 -19 -29 -36 -27
-38 1 -2 19 6 39 18 45 25 45 25 39 0 -3 -11 -9 -18 -13 -15 -14 9 -62 -14
-55 -26 4 -5 -1 -20 -12 -32 -18 -21 -18 -21 2 -7 20 15 20 14 1 -8 -22 -26
-36 -28 -36 -6 0 14 -2 14 -16 -1 -10 -10 -19 -12 -23 -7 -3 5 -15 -2 -25 -16
-11 -14 -14 -22 -8 -18 6 3 14 1 17 -4 5 -7 11 -5 19 6 11 15 13 15 19 1 4
-10 -2 -17 -21 -23 -15 -4 -29 -7 -32 -7 -3 0 -14 -8 -25 -19 l-20 -20 24 7
c16 5 21 4 17 -4 -4 -6 -2 -11 3 -11 24 0 8 -20 -29 -36 -38 -17 -55 -37 -45
-54 3 -4 16 -3 29 3 16 8 21 14 13 19 -8 5 -6 8 5 8 9 0 24 7 32 16 15 14 16
14 16 0 0 -23 16 -20 34 6 9 12 16 17 16 10 0 -19 20 -14 21 6 0 10 3 12 6 5
6 -16 64 12 60 29 -1 7 6 14 16 16 16 3 17 1 7 -17 -9 -17 -8 -21 5 -21 8 0
15 4 15 9 0 5 8 7 18 5 22 -6 82 31 82 50 0 9 7 13 20 11 11 -2 20 1 20 6 0 6
4 8 9 4 14 -8 -26 -72 -49 -78 -20 -5 -28 -27 -10 -27 6 0 10 -4 10 -10 0 -5
-7 -7 -15 -4 -8 4 -15 1 -15 -5 0 -8 -11 -10 -35 -5 -35 6 -48 -7 -23 -22 7
-4 8 -3 4 4 -4 7 -1 12 8 12 9 0 16 -7 16 -15 0 -8 -5 -15 -11 -15 -8 0 -8 -5
1 -15 10 -12 10 -15 -3 -15 -9 0 -18 -4 -21 -9 -7 -10 85 14 124 33 14 7 34
11 44 8 18 -4 18 -5 -5 -24 l-24 -19 25 7 25 6 -27 -21 c-32 -26 -38 -26 -38
-2 0 15 -5 19 -22 16 -12 -3 -24 -9 -28 -14 -3 -6 -20 -13 -38 -16 -18 -3 -41
-10 -50 -15 -18 -10 -61 -28 -126 -54 -21 -9 -47 -16 -58 -16 -11 0 -22 -8
-25 -19 -2 -10 -16 -24 -29 -31 -13 -8 -24 -19 -24 -27 0 -7 -9 -22 -20 -33
-11 -11 -20 -25 -20 -31 0 -6 -6 -9 -14 -6 -8 3 -19 -6 -27 -21 -17 -33 -28
-42 -45 -35 -8 3 -11 -2 -7 -16 4 -16 -1 -22 -22 -27 -16 -4 -31 -2 -38 6 -10
10 -8 12 9 8 17 -4 20 -2 16 14 -4 15 -10 18 -31 13 -19 -4 -22 -3 -11 4 11 7
12 13 4 21 -8 8 -20 2 -42 -21 -18 -18 -32 -38 -32 -45 0 -7 -4 -16 -10 -19
-7 -4 -7 3 0 20 14 36 14 35 -20 35 -16 0 -30 -4 -30 -10 0 -5 8 -7 18 -4 13
5 14 4 3 -4 -10 -7 -21 -6 -38 5 -28 19 -29 23 -3 16 15 -4 20 0 20 14 0 10 5
24 11 30 7 7 3 9 -15 6 -14 -3 -26 -9 -26 -13 0 -15 -33 -21 -42 -8 -6 10 -8
8 -8 -4 0 -10 -8 -19 -17 -19 -45 -4 -61 -7 -74 -15 -21 -13 -59 -16 -59 -5 0
6 16 13 35 17 50 9 44 26 -7 18 -33 -6 -39 -4 -33 6 6 10 4 12 -9 7 -10 -4
-20 -7 -22 -7 -3 0 -2 -5 2 -12 5 -7 2 -9 -9 -5 -9 3 -18 -1 -21 -9 -9 -22 -7
-26 6 -18 7 4 8 3 4 -5 -4 -6 -12 -8 -18 -5 -6 4 -14 0 -19 -7 -6 -10 -9 -8
-9 9 0 19 -4 22 -22 18 -16 -4 -14 -2 5 6 15 7 27 18 27 25 0 7 6 13 14 13 8
0 17 4 21 9 3 6 -7 8 -22 6 -16 -2 -36 -4 -46 -4 -10 -1 -15 -6 -12 -12 4 -6
-2 -5 -14 3 -21 12 -20 13 16 20 43 8 124 9 106 1 -25 -9 -13 -21 20 -18 48 4
49 4 42 14 -3 5 -1 12 4 16 6 3 8 -3 6 -15 -2 -11 1 -20 6 -20 19 0 41 30 36
49 -2 10 2 26 9 36 8 10 14 14 14 9 0 -6 -5 -15 -11 -21 -7 -7 -6 -12 6 -17
11 -4 14 -2 9 6 -5 8 -2 9 10 5 11 -5 31 1 51 13 30 18 45 18 45 -2 0 -4 -8
-8 -17 -9 -10 0 -13 -3 -6 -5 7 -3 20 -1 29 4 14 8 14 10 0 24 -8 9 -12 19 -8
23 4 4 -3 2 -15 -4 -18 -9 -23 -9 -23 1 0 8 -5 6 -11 -4 -5 -10 -19 -18 -30
-18 -19 0 -19 1 -5 16 20 19 20 20 0 28 -8 3 -13 2 -10 -3 3 -5 -1 -12 -10
-15 -10 -4 -13 -2 -8 6 5 8 2 9 -9 5 -32 -12 -17 2 21 20 28 14 33 19 18 21
-13 3 -15 6 -6 12 6 4 30 3 52 -3 40 -10 59 -1 57 28 0 6 -3 4 -6 -2 -6 -16
-50 -17 -55 -2 -2 7 -12 7 -31 0 -16 -6 -38 -10 -50 -10 -20 1 -20 2 -2 6 49
11 85 25 80 32 -2 5 9 8 26 9 l31 1 -23 -20 c-12 -10 -17 -19 -10 -19 22 0 57
50 52 73 -2 10 17 0 42 -21 9 -8 17 -10 17 -4 0 6 -6 13 -12 15 -10 4 -10 6 0
6 8 1 5 9 -9 24 -15 15 -23 18 -26 10 -9 -25 -21 -13 -17 16 4 25 2 28 -21 26
-14 -2 -23 0 -20 5 3 5 0 10 -7 12 -6 2 5 12 25 21 20 10 39 22 43 28 3 6 17
14 31 20 13 5 22 13 18 18 -6 11 7 25 54 52 18 11 31 23 28 26 -7 7 -172 -98
-174 -110 -2 -15 -13 -21 -13 -8 0 7 -12 3 -30 -10 -16 -12 -27 -26 -24 -31 3
-5 -7 -6 -23 -3 -21 5 -24 4 -13 -4 12 -8 8 -11 -17 -11 -17 0 -39 -3 -49 -7
-13 -5 -15 -3 -8 8 4 8 7 22 6 31 -2 9 6 22 17 28 12 6 21 15 21 21 0 6 7 17
15 25 8 9 15 20 15 25 0 12 -77 12 -85 -1 -3 -5 -1 -10 4 -10 6 0 11 -3 11 -8
0 -7 -11 -19 -71 -77 -11 -11 -26 -20 -32 -21 -20 -1 -80 -16 -97 -24 -8 -4
-33 -15 -55 -25 -47 -21 -35 -30 23 -17 51 12 70 2 42 -23 -16 -14 -20 -31
-20 -76 0 -36 5 -59 13 -62 9 -4 8 -8 -3 -16 -13 -10 -13 -11 0 -11 8 -1 2 -7
-15 -14 -21 -9 -32 -10 -37 -2 -5 7 -8 3 -8 -9 0 -17 -2 -17 -10 -5 -6 10 -10
11 -10 3 0 -9 -7 -10 -23 -4 -13 5 -30 5 -38 1 -18 -10 -71 -1 -63 11 10 17
-53 9 -74 -9 -16 -14 -18 -22 -10 -30 14 -14 32 -16 23 -3 -3 6 3 15 14 20 26
15 31 14 31 -5 0 -14 3 -14 15 -4 10 8 15 9 15 1 0 -6 -12 -14 -27 -17 -16 -4
-38 -16 -50 -27 -12 -11 -32 -20 -45 -21 -13 0 -23 -8 -24 -16 -2 -34 -5 -38
-24 -33 -16 4 -19 2 -13 -13 6 -16 5 -17 -9 -4 -9 8 -14 18 -12 21 5 9 -22 19
-47 19 -11 0 -17 -4 -14 -10 6 -10 -6 -12 -83 -15 -23 -1 -48 -7 -54 -13 -16
-16 -48 -15 -48 1 0 9 -3 8 -9 -2 -6 -9 -11 -10 -15 -2 -4 6 -25 10 -47 9 -21
-1 -42 2 -46 5 -3 4 23 7 58 7 36 0 70 -5 76 -11 9 -9 12 -7 10 9 -1 20 -6 21
-77 20 -68 -2 -75 0 -72 16 2 11 -2 23 -10 28 -12 8 17 4 64 -8 9 -3 24 5 33
18 12 15 15 17 12 6 -6 -16 0 -18 41 -17 26 0 56 5 67 10 18 9 18 9 -3 5 -15
-3 -22 0 -19 7 2 7 12 11 22 9 10 -2 14 1 10 7 -3 6 -1 11 5 11 6 0 13 -7 16
-15 8 -21 21 -19 27 5 3 11 10 20 15 20 6 0 8 -9 5 -19 -4 -15 2 -21 26 -26
17 -4 29 -11 25 -16 -9 -15 23 -10 36 6 10 12 9 15 -8 15 -11 0 -27 3 -36 6
-19 7 -22 25 -4 19 22 -7 81 10 86 24 3 10 0 12 -14 6 -34 -14 -86 -17 -79 -4
5 8 0 9 -16 4 -37 -10 -65 -15 -51 -9 17 8 15 24 -3 24 -8 0 -15 -4 -15 -10 0
-5 -16 -10 -35 -10 -38 0 -45 15 -17 37 9 8 11 12 4 8 -7 -4 -12 1 -13 12 0
10 -3 13 -6 6 -2 -7 -12 -13 -21 -13 -11 0 -13 -3 -5 -8 8 -5 8 -12 -2 -26 -8
-10 -18 -15 -24 -12 -5 3 -12 -2 -14 -11 -3 -11 -5 -7 -6 10 -1 17 3 26 9 22
11 -7 17 5 24 48 4 21 2 26 -7 19 -11 -10 -56 -15 -104 -13 -33 1 -28 21 5 21
44 0 55 14 22 28 -21 10 -37 10 -62 3 -31 -10 -31 -10 12 -6 l45 5 -58 -27
c-33 -16 -55 -31 -51 -35 4 -5 -5 -8 -20 -8 -15 0 -25 -4 -22 -9 3 -4 -7 -8
-22 -8 -29 -1 -103 -10 -139 -18 -12 -3 -24 -1 -27 4 -8 13 50 31 103 32 41 0
43 1 21 10 -14 6 -38 7 -55 4 -16 -4 -48 -9 -70 -11 -62 -6 -155 -26 -155 -33
0 -11 85 1 92 13 5 8 8 7 8 -2 0 -9 7 -11 23 -7 15 5 19 4 12 -3 -5 -6 -30
-12 -55 -14 -25 -2 -47 -5 -50 -8 -10 -11 -95 -28 -98 -21 -1 5 -21 5 -43 1
-50 -9 -37 9 19 26 l37 12 -32 1 c-17 1 -35 -4 -39 -10 -3 -6 -19 -9 -35 -5
-21 4 -29 1 -32 -12 -4 -16 -5 -16 -6 1 -1 14 -7 16 -28 12 -25 -6 -26 -5 -9
5 10 7 33 10 52 7 19 -3 34 -2 34 4 0 5 15 9 33 9 43 0 78 10 72 20 -3 5 16
12 42 16 62 9 75 15 63 34 -7 10 -10 11 -10 3 0 -7 -5 -13 -11 -13 -25 0 14
30 47 36 19 3 34 10 34 14 0 4 11 10 25 12 21 4 23 3 14 -9 -9 -11 -9 -12 4
-7 10 3 20 -2 27 -15 9 -17 8 -21 -5 -21 -8 0 -15 5 -15 11 0 6 -7 3 -16 -5
-20 -21 -30 -21 -14 0 12 13 10 14 -13 3 -14 -6 -25 -17 -24 -22 1 -6 -3 -11
-10 -12 -17 0 -29 -15 -12 -15 31 0 236 30 264 39 26 8 21 9 -35 10 -43 1 -60
4 -51 10 11 7 5 10 -20 13 l-34 3 24 24 c16 16 26 20 29 13 2 -7 8 -12 13 -12
6 0 8 4 4 9 -3 6 20 9 54 7 33 -1 57 2 54 7 -3 5 4 6 15 3 32 -11 135 -29 162
-29 52 -1 98 7 93 16 -3 5 -32 6 -64 4 -42 -4 -59 -2 -59 6 0 8 -3 7 -9 -2 -6
-9 -11 -10 -15 -2 -4 6 -20 11 -36 11 -16 0 -32 5 -35 10 -6 10 27 15 78 12
16 -1 27 3 27 11 0 20 38 39 57 28 13 -7 10 -10 -15 -16 -42 -9 -41 -23 1 -18
59 8 65 12 38 34 l-25 20 25 -6 c18 -4 26 -2 26 7 0 10 -12 13 -41 11 -47 -3
-161 -31 -131 -32 17 -1 17 -3 5 -15 -20 -18 -145 -46 -200 -45 l-45 2 40 7
40 7 -35 3 c-19 1 -39 1 -45 0 -5 -2 -32 -4 -60 -6 -27 -2 -51 -8 -53 -13 -2
-6 -10 -7 -19 -4 -8 3 -18 1 -22 -4 -9 -15 -72 -34 -84 -26 -19 12 -51 11 -66
-1 -11 -8 -13 -8 -7 2 4 7 2 12 -8 12 -8 0 -18 -5 -21 -11 -4 -6 -14 -7 -24
-4 -9 4 -29 8 -46 11 -22 2 -26 1 -15 -6 10 -6 -16 -8 -75 -4 -49 3 -91 7 -93
9 -2 2 13 6 34 10 22 3 61 10 87 15 27 6 59 10 73 10 24 0 31 15 16 36 -6 10
-125 28 -162 25 -8 -1 -25 -1 -37 -1 -12 0 -25 -5 -28 -10 -6 -10 35 -14 105
-12 28 2 31 0 15 -7 -28 -12 -135 -12 -135 0 0 6 -6 7 -12 2 -7 -4 -26 -9 -43
-10 -17 0 -34 -2 -38 -2 -4 -1 -7 -40 -6 -87 1 -67 4 -84 15 -80 8 3 14 1 14
-4 0 -6 -6 -10 -14 -10 -11 0 -14 -31 -15 -159 -1 -143 1 -161 16 -170 17 -10
17 -10 1 -11 -17 0 -18 -48 -18 -865 l0 -865 404 0 c377 0 405 1 409 18 4 16
5 16 6 -1 1 -16 38 -17 645 -17 568 1 645 2 650 16 3 8 10 13 15 10 12 -7 23
22 15 37 -4 7 -1 7 7 -1 11 -10 11 -16 1 -32 -6 -11 -12 -22 -12 -25 0 -3 59
-5 131 -5 84 0 128 4 124 10 -3 6 1 10 9 10 8 0 18 -5 21 -10 10 -15 392 -12
399 3 3 9 5 9 5 0 1 -15 41 -18 41 -3 0 7 6 7 19 0 13 -7 339 -10 985 -10
l966 0 0 305 0 305 -45 58 c-25 31 -45 61 -45 65 0 13 44 -14 67 -41 l23 -27
0 1790 c-1 1172 -4 1784 -10 1773 -18 -31 -86 -301 -94 -373 -2 -16 -8 -61
-14 -100 -22 -145 -50 -445 -57 -619 -3 -60 -10 -137 -15 -170 -5 -34 -7 -88
-4 -121 3 -33 1 -103 -5 -155 -21 -174 -22 -243 -6 -236 8 3 15 1 15 -3 0 -5
-4 -11 -10 -13 -5 -1 -12 -30 -15 -63 -13 -136 -29 -253 -45 -325 -17 -75 -48
-300 -55 -395 -4 -49 -10 -112 -15 -140 -5 -27 -12 -81 -15 -120 -3 -38 -8
-80 -11 -93 -2 -12 0 -31 5 -41 10 -18 15 -109 8 -144 -5 -24 -65 -60 -86 -51
-30 12 -80 14 -86 3 -5 -7 -18 -1 -36 17 -24 23 -33 26 -47 18 -29 -19 -9 -84
27 -84 41 0 88 -21 99 -45 6 -14 18 -25 27 -25 15 0 60 -38 53 -46 -3 -2 -22
5 -43 16 -22 11 -46 20 -54 20 -8 0 -23 7 -32 16 -13 11 -35 16 -70 15 -28 0
-58 3 -67 8 -10 5 -26 5 -37 0 -11 -4 -15 -8 -10 -8 16 -2 -88 -61 -107 -61
-10 0 -22 -9 -28 -20 -6 -11 -15 -20 -20 -20 -5 0 -26 -11 -46 -25 -21 -14
-45 -25 -53 -23 -9 1 -33 -4 -54 -11 -21 -7 -50 -11 -64 -8 -15 3 -27 -1 -30
-9 -4 -10 -9 -11 -18 -4 -6 5 -14 8 -17 5 -3 -3 -11 1 -18 10 -7 8 -21 15 -31
15 -11 0 -19 6 -19 13 0 18 -46 37 -59 24 -8 -8 -11 -8 -11 0 0 6 -20 14 -45
17 -32 5 -56 17 -81 42 -20 19 -44 34 -52 34 -8 0 -13 3 -10 6 4 3 0 17 -8 32
-12 24 -12 28 2 39 15 11 13 13 -10 19 -14 3 -26 11 -26 16 0 6 9 8 19 5 12
-3 22 1 25 9 3 8 16 14 29 14 13 0 32 9 41 19 10 11 35 23 57 26 21 4 39 11
39 16 0 5 11 9 25 9 14 0 44 9 66 20 28 15 49 19 73 14 44 -8 69 6 83 48 20
57 111 427 138 563 14 72 41 194 60 273 19 78 35 160 35 182 0 22 3 40 8 40 4
0 7 45 7 101 0 99 0 101 29 124 22 17 29 33 32 66 3 24 8 45 12 49 14 9 22 39
12 45 -5 3 -16 -9 -24 -27 -20 -44 -43 -71 -54 -64 -10 6 -14 96 -4 95 20 -3
32 3 32 15 0 7 9 16 20 19 12 3 20 0 20 -7 0 -7 7 -13 15 -13 8 0 15 9 15 19
0 11 -4 16 -10 13 -5 -3 -10 1 -10 10 0 9 5 13 10 10 6 -3 10 1 10 9 0 9 4 16
9 16 5 0 11 10 14 23 11 48 68 264 82 307 8 25 26 88 41 140 32 112 121 364
159 445 25 55 75 183 75 193 0 5 7 15 14 22 8 6 20 27 26 46 13 38 64 126 143
244 27 41 50 83 49 93 0 9 3 15 8 12 7 -4 40 52 40 69 0 3 -24 3 -52 0 l-53
-6 33 22 c17 12 32 25 32 29 0 5 18 16 40 26 l40 18 0 189 0 188 -965 0 c-963
0 -966 0 -955 -20z m-34 -164 c-1 -16 -5 -21 -12 -15 -6 5 -14 6 -17 2 -4 -3
-7 0 -7 9 0 18 9 28 26 28 6 0 11 -11 10 -24z m73 -2 c2 -2 -2 -10 -8 -18 -7
-8 -10 -20 -6 -26 4 -6 -4 -10 -19 -10 -23 0 -26 4 -26 36 0 34 1 36 27 29 16
-4 30 -8 32 -11z m686 -434 c-4 -6 -11 -8 -16 -5 -13 9 -11 -9 2 -22 6 -6 18
-9 25 -6 7 3 21 -3 30 -12 16 -15 16 -18 0 -33 -14 -14 -18 -15 -25 -3 -12 19
-50 -15 -44 -40 5 -16 0 -19 -36 -19 -40 0 -41 0 -22 19 10 10 28 22 40 26 27
8 27 31 1 38 -14 4 -18 10 -13 23 5 14 3 16 -11 11 -12 -5 -16 -3 -14 5 3 7
18 16 34 19 45 10 56 10 49 -1z m800 -363 c-4 -15 -13 -31 -21 -38 -18 -15
-18 -7 1 38 17 40 30 40 20 0z m-765 14 c0 -5 -7 -12 -16 -15 -14 -5 -15 -4
-4 9 14 17 20 19 20 6z m534 -39 c-27 -18 -48 -157 -35 -229 7 -34 5 -43 -5
-43 -9 0 -14 -11 -14 -30 0 -38 3 -46 14 -42 5 2 5 -7 1 -20 -11 -35 -45 -207
-52 -261 -3 -26 -9 -50 -14 -53 -4 -2 -5 18 -2 47 4 38 2 53 -8 60 -11 7 -12
11 -1 17 9 6 12 26 10 60 -2 29 -2 52 1 52 4 0 7 12 8 28 1 15 5 44 9 65 4 23
2 43 -6 52 -6 8 -9 18 -6 24 3 5 1 11 -5 13 -8 3 -7 12 6 31 9 15 15 36 12 47
-3 11 4 36 14 57 10 20 19 45 19 55 0 10 5 18 10 18 6 0 10 11 10 24 0 23 11
34 35 35 6 0 5 -2 -1 -7z m-474 -82 c0 -5 -4 -10 -10 -10 -5 0 -10 5 -10 10 0
6 5 10 10 10 6 0 10 -4 10 -10z m-415 -170 c-3 -5 -10 -10 -16 -10 -5 0 -9 5
-9 10 0 6 7 10 16 10 8 0 12 -4 9 -10z m838 -315 c-25 -19 -28 -11 -6 21 15
23 19 25 21 10 2 -10 -5 -24 -15 -31z m-1388 -43 c-3 -3 -11 0 -18 7 -9 10 -8
11 6 5 10 -3 15 -9 12 -12z m231 -74 c-2 -29 -7 -54 -10 -55 -19 -8 -22 2 -13
52 13 70 28 72 23 3z m-485 -95 c13 -16 12 -17 -3 -4 -10 7 -18 15 -18 17 0 8
8 3 21 -13z m139 7 c0 -5 -4 -10 -10 -10 -5 0 -10 5 -10 10 0 6 5 10 10 10 6
0 10 -4 10 -10z m-407 -17 c-7 -2 -19 -2 -25 0 -7 3 -2 5 12 5 14 0 19 -2 13
-5z m257 -7 c0 -11 -19 -15 -25 -6 -3 5 1 10 9 10 9 0 16 -2 16 -4z m-60 -10
c0 -11 -19 -15 -25 -6 -3 5 1 10 9 10 9 0 16 -2 16 -4z m-80 -20 c0 -3 -4 -8
-10 -11 -5 -3 -10 -1 -10 4 0 6 5 11 10 11 6 0 10 -2 10 -4z m-328 -28 c-9 -9
-15 -9 -24 0 -9 9 -7 12 12 12 19 0 21 -3 12 -12z m448 -16 c0 -5 -12 -14 -27
-21 l-28 -11 24 20 c26 22 31 24 31 12z m-612 -20 c2 -8 -15 -11 -51 -9 -34 1
-53 6 -50 13 5 14 96 10 101 -4z m272 2 c0 -2 -7 -4 -15 -4 -8 0 -15 4 -15 10
0 5 7 7 15 4 8 -4 15 -8 15 -10z m-390 2 c0 -11 -19 -15 -25 -6 -3 5 1 10 9
10 9 0 16 -2 16 -4z m1170 -6 c0 -5 -5 -10 -11 -10 -5 0 -7 5 -4 10 3 6 8 10
11 10 2 0 4 -4 4 -10z m-952 -7 c-16 -2 -40 -2 -55 0 -16 2 -3 4 27 4 30 0 43
-2 28 -4z m436 -16 c-13 -7 -19 -7 -22 1 -2 7 -9 9 -14 6 -6 -4 -8 -2 -5 3 4
6 18 8 33 5 24 -4 25 -6 8 -15z m466 9 c0 -3 -4 -8 -10 -11 -5 -3 -10 -1 -10
4 0 6 5 11 10 11 6 0 10 -2 10 -4z m-615 -18 c3 -3 -12 -8 -34 -12 -21 -3 -48
-9 -58 -12 -10 -3 -6 2 9 13 25 17 71 24 83 11z m75 -18 c-14 -10 -27 -16 -30
-13 -3 3 1 8 8 10 6 3 10 8 8 12 -3 4 5 8 17 8 21 2 21 1 -3 -17z m1000 11 c0
-5 -9 -11 -21 -14 -16 -4 -18 -3 -8 9 13 16 29 19 29 5z m-567 -16 c-3 -9 -8
-14 -10 -11 -3 3 -2 9 2 15 9 16 15 13 8 -4z m67 11 c0 -2 -8 -10 -17 -17 -16
-13 -17 -12 -4 4 13 16 21 21 21 13z m-824 -74 c26 12 34 31 9 22 -17 -7 -19
4 -5 26 7 12 12 12 22 2 6 -6 8 -12 4 -12 -5 0 -3 -6 3 -14 9 -11 5 -17 -16
-32 -16 -10 -34 -24 -41 -31 -11 -11 -11 -13 3 -13 10 0 14 -5 10 -12 -4 -7 3
-2 14 10 11 13 26 22 32 20 7 -2 -2 -17 -19 -35 -30 -29 -35 -31 -114 -32 -79
0 -82 0 -55 15 15 8 27 16 27 19 0 2 -24 2 -52 0 -109 -9 -433 -17 -428 -12
10 10 94 18 273 24 98 3 180 10 183 14 3 5 10 9 15 9 6 0 7 -4 4 -10 -9 -15 6
-12 45 10 40 22 38 22 -47 21 -35 -1 -63 1 -63 4 0 14 97 46 143 46 9 0 18 6
19 12 1 7 3 -5 5 -25 4 -35 5 -37 29 -26z m725 -9 c-10 -17 -10 -16 -11 3 0
23 13 41 18 25 2 -6 -1 -18 -7 -28z m-2691 7 c12 -8 9 -10 -13 -10 -16 0 -26
4 -22 10 8 12 16 12 35 0z m335 -11 c-44 -4 -84 -4 -90 -1 -15 10 62 18 120
13 47 -5 45 -5 -30 -12z m2440 -19 c-10 -11 -23 -16 -29 -12 -7 4 -5 8 7 10 9
2 15 8 12 13 -4 5 2 9 11 9 16 0 16 -1 -1 -20z m-125 -18 c0 -15 -2 -15 -10
-2 -13 20 -13 33 0 25 6 -3 10 -14 10 -23z m-2261 14 c-2 -2 -33 -6 -69 -9
-38 -3 -57 -1 -45 3 19 8 123 14 114 6z m1641 -20 c0 -3 -4 -8 -10 -11 -5 -3
-10 -1 -10 4 0 6 5 11 10 11 6 0 10 -2 10 -4z m326 -33 c-11 -11 -17 4 -9 23
7 18 8 18 11 1 2 -10 1 -21 -2 -24z m344 33 c0 -2 -7 -7 -16 -10 -8 -3 -12 -2
-9 4 6 10 25 14 25 6z m-2148 -13 c-12 -2 -20 -7 -18 -11 2 -4 -27 -8 -65 -8
-68 -1 -95 11 -41 19 36 5 153 5 124 0z m-279 -20 c-7 -2 -21 -2 -30 0 -10 3
-4 5 12 5 17 0 24 -2 18 -5z m2397 -5 c0 -6 -3 -8 -7 -5 -3 4 -12 2 -20 -4
-13 -11 -19 2 -6 14 11 11 33 8 33 -5z m-1292 -10 c9 -9 12 -9 12 0 0 8 7 9
25 2 14 -5 25 -6 25 -1 0 5 23 8 50 8 28 0 50 -3 50 -8 0 -17 -43 -31 -79 -25
-49 9 -52 9 -173 0 -68 -4 -108 -3 -108 3 0 10 32 14 125 13 44 0 56 2 45 10
-13 8 -13 10 1 10 8 0 20 -5 27 -12z m242 2 c0 -5 -13 -10 -29 -10 -17 0 -33
5 -36 10 -4 6 8 10 29 10 20 0 36 -4 36 -10z m1181 -33 c-10 -9 -11 -8 -5 6 3
10 9 15 12 12 3 -3 0 -11 -7 -18z m-641 -2 c0 -20 -115 -94 -127 -81 -2 2 22
22 54 44 56 38 73 47 73 37z m-620 -17 c0 -10 -19 -9 -45 2 -16 7 -14 9 13 7
17 -1 32 -5 32 -9z m-467 -50 c-15 -4 -29 -5 -32 -2 -8 7 21 24 31 18 4 -3 8
1 8 8 0 9 3 9 10 -2 7 -12 3 -17 -17 -22z m984 -48 c-1 -11 -5 -20 -9 -20 -4
0 -8 9 -8 20 0 11 4 20 9 20 6 0 9 -9 8 -20z m1540 -2 c-3 -8 -6 -5 -6 6 -1
11 2 17 5 13 3 -3 4 -12 1 -19z m-1579 -18 c-7 -10 -14 -17 -17 -15 -4 4 18
35 25 35 2 0 -1 -9 -8 -20z m630 -65 c-6 -14 -17 -25 -24 -25 -14 0 -84 -39
-84 -47 0 -3 12 -2 28 1 l27 6 -27 -17 c-16 -10 -28 -21 -28 -25 0 -5 -5 -8
-11 -8 -5 0 -7 5 -4 10 3 6 -1 10 -10 10 -9 0 -15 -6 -14 -12 4 -32 -2 -48
-18 -48 -15 0 -16 2 -3 10 10 6 11 10 3 10 -10 0 -10 6 -1 25 6 14 19 25 30
25 10 0 17 3 17 8 -3 19 2 33 10 28 5 -3 14 1 21 9 7 8 19 15 26 15 8 0 14 5
14 10 0 6 6 10 14 10 7 0 19 7 26 15 18 22 21 18 8 -10z m112 10 c-7 -8 -17
-15 -23 -15 -6 0 -2 7 9 15 25 19 30 19 14 0z m250 5 c0 -5 -10 -10 -22 -9
-22 0 -22 1 -3 9 11 5 21 9 23 9 1 1 2 -3 2 -9z m-239 -63 c-10 -9 -11 -8 -5
6 3 10 9 15 12 12 3 -3 0 -11 -7 -18z m169 -17 c-5 -19 -5 -28 1 -25 5 4 9 0
10 -7 0 -7 2 -25 4 -40 3 -24 2 -26 -15 -16 -10 6 -17 20 -15 30 5 23 -14 24
-21 1 -11 -35 -21 -46 -42 -48 -23 -2 -29 9 -11 21 6 3 18 22 26 41 8 19 23
38 34 40 16 5 18 8 7 14 -10 7 -9 9 5 9 11 0 15 4 11 12 -4 6 -3 8 4 4 7 -4 8
-17 2 -36z m-460 20 c0 -5 -5 -10 -11 -10 -5 0 -7 5 -4 10 3 6 8 10 11 10 2 0
4 -4 4 -10z m1101 -12 c-10 -27 -31 -36 -31 -13 0 9 4 14 9 11 5 -3 11 1 15 9
3 8 8 15 10 15 3 0 2 -10 -3 -22z m-841 -21 c0 -7 -13 -21 -30 -30 -16 -10
-30 -16 -30 -13 0 11 38 44 44 39 3 -4 6 -1 6 5 0 7 2 12 5 12 3 0 5 -6 5 -13z
m-570 -51 c0 -2 -7 -7 -16 -10 -8 -3 -12 -2 -9 4 6 10 25 14 25 6z m405 -6 c3
-5 2 -10 -4 -10 -5 0 -13 5 -16 10 -3 6 -2 10 4 10 5 0 13 -4 16 -10z m245
-50 c0 -5 -2 -10 -4 -10 -3 0 -8 5 -11 10 -3 6 -1 10 4 10 6 0 11 -4 11 -10z
m-810 -31 c16 -1 19 -3 8 -6 -10 -2 -18 -11 -18 -18 0 -7 8 -15 18 -18 16 -4
15 -5 -2 -12 -13 -6 -23 -3 -31 8 -6 9 -16 13 -21 8 -13 -12 -76 -23 -69 -12
3 5 2 11 -2 14 -5 2 -3 2 4 1 17 -4 64 21 56 30 -4 4 1 4 12 0 18 -7 19 -6 5
12 -11 15 -11 16 0 7 8 -7 25 -14 40 -14z m-135 -9 c3 -5 -1 -10 -9 -10 -8 0
-18 5 -21 10 -3 6 1 10 9 10 8 0 18 -4 21 -10z m-1592 -7 c-7 -2 -21 -2 -30 0
-10 3 -4 5 12 5 17 0 24 -2 18 -5z m1547 -33 c0 -18 -10 -25 -32 -21 -5 0 -8
-6 -8 -15 0 -10 6 -14 15 -10 8 3 15 1 15 -5 0 -6 5 -7 10 -4 6 3 10 1 10 -5
0 -6 4 -9 8 -6 4 2 14 1 22 -5 13 -7 12 -9 -2 -9 -10 0 -18 -5 -18 -10 0 -6
-15 -9 -32 -8 -26 2 -34 8 -38 28 -8 36 -1 57 22 63 11 3 17 10 13 16 -3 6 -1
11 4 11 6 0 11 -9 11 -20z m1063 8 c-2 -5 -13 -8 -24 -8 -10 0 -19 3 -19 8 0
4 11 7 24 7 13 0 22 -3 19 -7z m-927 -23 c-11 -8 -27 -15 -35 -15 -10 1 -7 6
9 15 33 19 50 18 26 0z m734 -35 c0 -5 -5 -10 -11 -10 -5 0 -7 5 -4 10 3 6 8
10 11 10 2 0 4 -4 4 -10z m-783 -6 c-3 -3 -12 -4 -19 -1 -8 3 -5 6 6 6 11 1
17 -2 13 -5z m1073 -27 c0 -12 9 -46 20 -75 24 -62 26 -83 5 -56 -14 18 -14
17 -15 -13 0 -18 4 -33 9 -33 20 0 -21 -71 -66 -114 -46 -45 -74 -56 -38 -16
16 18 17 24 6 41 -9 16 -9 24 0 35 18 22 3 47 -23 39 -13 -3 -18 -3 -12 2 6 4
13 16 17 26 7 20 -13 23 -31 5 -9 -9 -12 -9 -12 0 0 7 5 12 11 12 6 0 9 6 6
13 -2 6 -9 11 -15 10 -6 -2 -9 4 -6 11 3 8 12 12 19 10 7 -3 26 2 42 11 15 9
20 14 11 11 -10 -3 -20 -1 -23 4 -4 6 1 10 9 10 9 0 16 5 16 10 0 6 6 10 14
10 8 0 17 7 20 16 3 8 11 12 17 8 8 -4 9 -3 5 5 -4 6 -12 9 -17 6 -5 -3 -6 1
-3 9 3 9 11 13 17 9 6 -4 8 0 4 11 -4 10 -3 15 3 11 6 -3 10 -16 10 -28z
m-2559 -7 c19 0 28 -4 24 -11 -8 -12 -65 -2 -80 14 -7 7 -4 8 8 3 10 -3 32 -6
48 -6z m2283 -6 c4 -9 4 -19 1 -22 -3 -3 -5 0 -5 6 0 7 -7 12 -15 12 -8 0 -15
5 -15 10 0 16 27 11 34 -6z m72 -10 c-11 -7 -22 -12 -25 -9 -2 3 4 12 15 19
10 8 21 12 24 9 3 -2 -4 -11 -14 -19z m-2176 6 c0 -5 -5 -10 -11 -10 -5 0 -7
5 -4 10 3 6 8 10 11 10 2 0 4 -4 4 -10z m2140 -11 c0 -6 -4 -7 -10 -4 -5 3
-10 11 -10 16 0 6 5 7 10 4 6 -3 10 -11 10 -16z m-965 -9 c-3 -5 2 -10 11 -10
10 0 15 -3 11 -6 -10 -10 -39 5 -32 16 3 5 8 10 11 10 3 0 2 -4 -1 -10z
m-1572 -7 c-7 -2 -19 -2 -25 0 -7 3 -2 5 12 5 14 0 19 -2 13 -5z m47 -3 c0 -5
-4 -10 -10 -10 -5 0 -10 5 -10 10 0 6 5 10 10 10 6 0 10 -4 10 -10z m-126 -9
c4 -5 -3 -7 -14 -4 -23 6 -26 13 -6 13 8 0 17 -4 20 -9z m36 -1 c0 -5 -5 -10
-11 -10 -5 0 -7 5 -4 10 3 6 8 10 11 10 2 0 4 -4 4 -10z m784 -15 c-5 -11 -15
-14 -39 -9 -18 3 -42 1 -54 -5 -17 -9 -21 -9 -21 3 0 19 15 24 72 25 39 1 46
-2 42 -14z m56 -1 c0 -2 -9 -4 -20 -4 -11 0 -20 4 -20 9 0 5 9 7 20 4 11 -3
20 -7 20 -9z m1690 -4 c-24 -15 -36 -11 -14 4 10 8 21 12 24 10 2 -3 -2 -9
-10 -14z m-1785 -21 c11 -17 2 -18 -19 -3 -17 12 -17 14 -4 14 9 0 20 -5 23
-11z m57 -29 c-2 -16 -7 -30 -11 -30 -4 0 -6 14 -3 30 2 17 7 30 11 30 4 0 6
-13 3 -30z m-952 10 c0 -5 -2 -10 -4 -10 -3 0 -8 5 -11 10 -3 6 -1 10 4 10 6
0 11 -4 11 -10z m636 -8 c-10 -2 -22 0 -28 6 -6 6 0 7 19 4 21 -5 23 -7 9 -10z
m2054 14 c0 -2 -7 -6 -15 -10 -8 -3 -15 -1 -15 4 0 6 7 10 15 10 8 0 15 -2 15
-4z m-2096 -14 c2 -4 -8 -9 -24 -10 -16 -1 -31 2 -35 8 -4 6 6 10 24 10 16 0
32 -4 35 -8z m-114 -17 c0 -8 -9 -15 -19 -15 -28 0 -52 -11 -45 -21 3 -5 -5
-9 -18 -10 -22 0 -22 -1 -3 -9 16 -7 17 -9 3 -9 -42 -2 -23 54 24 68 48 13 58
13 58 -4z m1057 9 c-3 -3 -12 -4 -19 -1 -8 3 -5 6 6 6 11 1 17 -2 13 -5z
m-699 -15 c-2 -7 -24 -12 -51 -11 -73 1 -77 5 -12 12 33 4 62 7 63 8 2 1 2 -3
0 -9z m1862 -42 c-10 -9 -11 -9 -5 2 6 11 4 13 -11 8 -18 -7 -18 -6 1 8 23 18
36 1 15 -18z m-2187 13 c-8 -8 -53 -7 -53 2 0 4 13 6 29 5 16 -1 27 -4 24 -7z
m63 3 c-10 -11 -37 -12 -30 -2 3 5 12 9 21 9 9 0 13 -3 9 -7z m237 -12 c-2 -6
9 -12 25 -12 17 -1 20 -3 9 -6 -9 -2 -15 -8 -12 -13 2 -4 -18 -6 -45 -5 -34 2
-50 -1 -50 -9 0 -8 19 -12 60 -10 33 1 60 -2 60 -6 0 -4 -32 -8 -71 -8 -55 0
-69 3 -65 13 4 11 -14 15 -77 21 -45 4 -76 9 -69 11 6 3 10 9 6 14 -3 5 5 5
19 0 16 -6 28 -6 36 2 8 8 14 8 23 -1 18 -18 38 -15 39 6 0 10 3 12 6 5 7 -19
72 -16 80 2 6 18 29 14 26 -4z m-648 -1 c-3 -5 -12 -10 -18 -10 -7 0 -6 4 3
10 19 12 23 12 15 0z m65 6 c0 -2 -11 -6 -25 -8 -14 -3 -25 -1 -25 3 0 5 11 9
25 9 14 0 25 -2 25 -4z m125 -6 c-3 -5 -12 -10 -18 -10 -7 0 -6 4 3 10 19 12
23 12 15 0z m408 3 c-7 -2 -21 -2 -30 0 -10 3 -4 5 12 5 17 0 24 -2 18 -5z
m-212 -20 c8 -8 -10 -11 -63 -11 -40 0 -67 2 -60 5 6 3 10 8 8 11 -7 12 103 7
115 -5z m102 -32 c32 -1 57 -6 57 -11 0 -16 -194 2 -204 19 -3 4 16 4 42 0 26
-4 73 -8 105 -8z m867 1 c0 -4 -11 -7 -25 -7 -22 0 -23 1 -9 12 16 12 34 9 34
-5z m96 0 c-4 -13 3 -23 27 -37 17 -11 36 -18 40 -17 5 1 6 -2 2 -8 -4 -7 -12
-7 -25 0 -13 7 -21 7 -25 0 -7 -12 -25 -4 -25 11 0 6 5 7 10 4 6 -3 10 -1 10
4 0 6 -9 11 -20 11 -17 0 -19 3 -11 19 6 10 7 21 4 25 -3 3 -1 6 6 6 7 0 10
-7 7 -18z m-1456 -18 c14 -2 92 -6 173 -8 81 -2 153 -8 160 -14 7 -5 28 -10
47 -10 19 -1 121 -9 225 -17 105 -9 217 -18 249 -21 66 -5 78 -10 56 -24 -21
-13 -3 -12 22 1 15 8 23 8 32 -1 8 -8 7 -10 -6 -5 -13 5 -18 2 -18 -10 0 -9
-4 -13 -10 -10 -5 3 -10 1 -10 -6 0 -6 -8 -9 -20 -6 -11 3 -20 1 -20 -4 0 -5
-18 -9 -40 -9 -34 0 -40 3 -40 22 0 21 -15 17 -15 -5 -1 -7 -7 -10 -15 -9 -8
2 -31 4 -50 5 -19 0 -38 5 -41 10 -4 5 -26 9 -50 9 -190 -1 -299 -6 -299 -14
0 -4 -5 -8 -11 -8 -5 0 -8 3 -6 8 6 9 -83 8 -182 -3 -70 -7 -74 -6 -58 9 9 9
22 16 29 15 7 -1 21 2 32 6 10 5 26 4 35 -2 9 -5 27 -7 41 -3 24 6 23 7 -10
14 -19 4 -53 7 -75 6 -22 0 -62 6 -88 14 -26 8 -44 10 -41 5 6 -10 -17 -12
-40 -3 -21 8 -20 24 2 24 25 0 46 16 38 29 -4 6 -12 8 -18 5 -17 -11 -68 -13
-68 -3 0 5 -15 10 -32 11 -25 1 -21 3 17 8 28 4 57 5 65 3 8 -3 26 -6 40 -9z
m1420 -8 c0 -2 -7 -7 -16 -10 -10 -4 -13 -2 -8 6 5 7 2 9 -9 5 -11 -4 -14 -2
-10 8 4 11 10 12 24 4 10 -5 19 -11 19 -13z m368 9 c-3 -11 -57 -15 -73 -6 -5
3 6 9 25 12 43 8 52 6 48 -6z m-171 -10 c0 -8 -4 -12 -9 -9 -5 3 -6 10 -3 15
9 13 12 11 12 -6z m1113 -25 c0 -5 -5 -10 -11 -10 -5 0 -7 5 -4 10 3 6 8 10
11 10 2 0 4 -4 4 -10z m-741 -61 c-16 -10 -23 -4 -14 10 3 6 11 8 17 5 6 -4 5
-9 -3 -15z m701 -4 c-7 -8 -17 -15 -23 -15 -6 0 -2 7 9 15 25 19 30 19 14 0z
m-2074 -30 c-16 -16 -36 -20 -36 -7 0 14 12 22 32 22 17 0 18 -2 4 -15z m431
-2 c3 -7 -8 -18 -23 -24 -23 -8 -26 -12 -14 -21 12 -8 12 -9 -3 -4 -10 3 -23
6 -28 6 -6 0 -8 4 -4 9 3 5 0 13 -7 17 -8 5 -3 12 17 21 35 14 57 13 62 -4z
m-1090 1 c-3 -3 -12 -4 -19 -1 -8 3 -5 6 6 6 11 1 17 -2 13 -5z m83 -14 c-20
-13 -30 -12 -30 1 0 5 4 8 9 4 5 -3 13 0 16 6 4 5 10 8 13 4 4 -3 0 -10 -8
-15z m320 16 c0 -3 -4 -8 -10 -11 -5 -3 -10 -1 -10 4 0 6 5 11 10 11 6 0 10
-2 10 -4z m180 -6 c-8 -5 -19 -10 -25 -10 -5 0 -3 5 5 10 8 5 20 10 25 10 6 0
3 -5 -5 -10z m167 -16 c-3 -3 -12 -4 -19 -1 -8 3 -5 6 6 6 11 1 17 -2 13 -5z
m531 -21 c41 -19 40 -29 -3 -44 -19 -7 -34 -18 -34 -24 3 -22 -1 -35 -12 -35
-5 0 -7 5 -4 10 3 6 1 10 -4 10 -6 0 -11 7 -11 15 0 19 -48 31 -63 16 -17 -17
-48 -14 -40 5 3 8 11 13 18 11 6 -3 25 10 41 28 31 37 46 38 112 8z m-608 -2
c0 -6 -5 -13 -12 -17 -6 -4 -8 -3 -4 4 3 5 0 13 -6 15 -8 3 -6 6 5 6 9 1 17
-3 17 -8z m35 -11 c-3 -5 -12 -10 -18 -10 -7 0 -6 4 3 10 19 12 23 12 15 0z
m-255 -10 c0 -5 -5 -10 -11 -10 -5 0 -7 5 -4 10 3 6 8 10 11 10 2 0 4 -4 4
-10z m527 -4 c-3 -7 0 -19 6 -25 8 -8 6 -11 -8 -12 -14 0 -11 -4 10 -11 36
-12 99 -11 103 2 2 5 25 1 52 -9 33 -12 50 -15 53 -8 2 8 5 8 10 0 4 -7 -5
-15 -23 -22 -24 -8 -30 -7 -30 5 0 16 -16 19 -25 4 -4 -6 -13 -7 -23 -1 -16 8
-110 6 -139 -4 -14 -5 -65 44 -57 56 3 5 14 9 24 9 11 0 25 7 32 15 16 18 22
19 15 1z m-566 -14 c-7 -2 -18 1 -23 6 -8 8 -4 9 13 5 13 -4 18 -8 10 -11z
m684 -2 c-3 -5 -11 -10 -16 -10 -6 0 -7 5 -4 10 3 6 11 10 16 10 6 0 7 -4 4
-10z m-35 -15 c11 -13 10 -14 -4 -9 -9 3 -16 10 -16 15 0 13 6 11 20 -6z m287
9 c-3 -3 -12 -4 -19 -1 -8 3 -5 6 6 6 11 1 17 -2 13 -5z m-657 -13 c0 -9 -33
-21 -57 -21 -22 0 -14 18 10 23 39 8 47 7 47 -2z m500 -1 c0 -5 -2 -10 -4 -10
-3 0 -8 5 -11 10 -3 6 -1 10 4 10 6 0 11 -4 11 -10z m485 0 c-3 -4 1 -11 7
-13 7 -3 -1 -6 -19 -6 -36 -1 -38 24 -3 26 11 1 18 -2 15 -7z m242 -36 c-3 -3
-12 -4 -19 -1 -8 3 -5 6 6 6 11 1 17 -2 13 -5z m-590 -10 c-3 -3 -12 -4 -19
-1 -8 3 -5 6 6 6 11 1 17 -2 13 -5z m158 -133 c3 -5 2 -12 -3 -15 -5 -3 -9 1
-9 9 0 17 3 19 12 6z m125 -841 c0 -5 -5 -10 -11 -10 -5 0 -7 5 -4 10 3 6 8
10 11 10 2 0 4 -4 4 -10z m-180 -61 c0 7 5 9 10 6 18 -11 0 -25 -25 -21 -13 3
-25 0 -27 -6 -3 -8 -10 -8 -24 0 -20 11 -19 11 26 25 8 2 21 0 28 -6 8 -6 12
-6 12 2z m163 -9 c-3 -12 -8 -19 -11 -16 -5 6 5 36 12 36 2 0 2 -9 -1 -20z
m-193 -44 c0 -7 -40 -14 -44 -7 -3 4 6 8 20 9 13 1 24 0 24 -2z m157 -21 c-7
-13 -14 -20 -15 -14 -2 5 2 16 8 24 18 21 20 18 7 -10z m843 7 c0 -4 -9 -13
-20 -20 -23 -14 -26 -8 -7 13 13 16 27 19 27 7z m-1143 -24 c-3 -8 -6 -5 -6 6
-1 11 2 17 5 13 3 -3 4 -12 1 -19z m-25 -20 c-7 -7 -12 -8 -12 -2 0 14 12 26
19 19 2 -3 -1 -11 -7 -17z m255 5 c0 -17 -17 -17 -18 0 0 6 -4 3 -9 -8 -6 -15
-9 -16 -9 -4 -1 19 5 26 22 26 8 0 14 -6 14 -14z m891 -25 c-18 -6 -25 -14
-21 -27 3 -10 -1 -22 -8 -27 -9 -5 -11 -2 -6 9 3 9 3 16 -1 16 -18 -3 -22 2
-10 14 24 21 53 35 63 29 5 -3 -3 -10 -17 -14z m-968 -2 c0 -11 -19 -15 -25
-6 -3 5 1 10 9 10 9 0 16 -2 16 -4z m1127 -16 c-3 -11 -1 -18 4 -14 5 3 9 0 9
-5 0 -6 -4 -11 -10 -11 -5 0 -10 -7 -10 -16 0 -8 -5 -12 -11 -9 -6 4 -8 14 -5
22 3 8 1 11 -4 8 -15 -10 -12 3 7 25 22 25 27 25 20 0z m-212 -50 c3 -5 1 -10
-4 -10 -6 0 -11 5 -11 10 0 6 2 10 4 10 3 0 8 -4 11 -10z m-275 -12 c0 -4 -4
-10 -10 -13 -5 -3 -10 -17 -10 -31 0 -26 -7 -29 -30 -14 -13 8 -12 10 4 10 15
0 17 6 14 29 -3 24 -1 29 14 28 10 -1 18 -5 18 -9z m186 -15 c-4 -10 2 -26 16
-41 l23 -25 -22 12 c-13 6 -23 16 -23 22 0 6 -4 8 -9 5 -11 -7 -9 13 2 32 12
18 20 15 13 -5z m188 2 c-4 -8 -7 -15 -9 -15 -2 0 -5 7 -9 15 -3 9 0 15 9 15
9 0 12 -6 9 -15z m186 11 c0 -2 -9 -6 -20 -9 -11 -3 -18 -1 -14 4 5 9 34 13
34 5z m-536 -24 c3 -5 -1 -9 -9 -9 -8 0 -12 4 -9 9 3 4 7 8 9 8 2 0 6 -4 9 -8z
m116 -2 c0 -5 -4 -10 -10 -10 -5 0 -10 5 -10 10 0 6 5 10 10 10 6 0 10 -4 10
-10z m98 -9 c11 -7 10 -10 -3 -15 -20 -7 -38 1 -30 15 7 11 16 11 33 0z
m-1483 -35 c-11 -8 -24 -12 -29 -8 -5 3 -1 9 10 13 31 12 39 10 19 -5z m1929
-3 c5 -11 0 -22 -11 -31 -16 -11 -16 -14 -3 -22 8 -5 12 -10 8 -11 -5 -1 -11
-2 -15 -3 -5 -1 -15 -5 -23 -11 -13 -7 -13 -6 -2 7 11 14 10 20 -8 38 -12 12
-19 25 -15 28 4 4 12 -1 20 -11 12 -16 13 -16 19 8 7 29 21 33 30 8z m-134
-31 c0 -15 -2 -15 -10 -2 -13 20 -13 33 0 25 6 -3 10 -14 10 -23z m-610 8 c0
-5 -8 -10 -17 -10 -15 0 -16 2 -3 10 19 12 20 12 20 0z m530 -5 c-7 -9 -15
-13 -17 -11 -7 7 7 26 19 26 6 0 6 -6 -2 -15z m-580 -15 c-13 -8 -12 -10 3
-10 21 0 18 -20 -4 -30 -8 -4 -25 -13 -39 -20 -21 -10 -23 -10 -12 1 15 16 16
33 0 23 -7 -4 -8 -3 -4 4 4 7 13 12 21 12 7 0 15 7 19 15 3 8 11 15 18 15 9 0
8 -3 -2 -10z m154 2 c3 -5 -8 -16 -24 -25 -16 -10 -31 -13 -34 -8 -4 5 3 12
14 16 11 3 20 11 20 16 0 11 17 12 24 1z m116 -23 c0 -6 -4 -7 -10 -4 -5 3
-10 11 -10 16 0 6 5 7 10 4 6 -3 10 -11 10 -16z m241 -12 c-8 -8 -11 -7 -11 4
0 20 13 34 18 19 3 -7 -1 -17 -7 -23z m174 23 c-3 -5 -11 -10 -16 -10 -6 0 -7
5 -4 10 3 6 11 10 16 10 6 0 7 -4 4 -10z m-464 -23 c-10 -9 -11 -8 -5 6 3 10
9 15 12 12 3 -3 0 -11 -7 -18z m-1031 9 c0 -3 -4 -8 -10 -11 -5 -3 -10 -1 -10
4 0 6 5 11 10 11 6 0 10 -2 10 -4z m1250 -6 c0 -5 -4 -10 -10 -10 -5 0 -10 5
-10 10 0 6 5 10 10 10 6 0 10 -4 10 -10z m-1980 -10 c0 -5 -5 -10 -11 -10 -5
0 -7 5 -4 10 3 6 8 10 11 10 2 0 4 -4 4 -10z m2000 -4 c0 -7 -9 -16 -21 -19
-21 -6 -21 -5 -3 13 23 23 24 23 24 6z m470 10 c0 -3 -4 -8 -10 -11 -5 -3 -10
-1 -10 4 0 6 5 11 10 11 6 0 10 -2 10 -4z m-1015 -56 c3 -6 -1 -7 -9 -4 -18 7
-21 14 -7 14 6 0 13 -4 16 -10z m85 -20 c0 -5 -5 -10 -11 -10 -5 0 -7 5 -4 10
3 6 8 10 11 10 2 0 4 -4 4 -10z m106 -5 c14 -13 13 -15 -4 -15 -11 0 -22 7
-26 15 -3 8 -1 15 5 15 6 0 17 -7 25 -15z m444 0 c0 -8 -4 -15 -10 -15 -5 0
-10 7 -10 15 0 8 5 15 10 15 6 0 10 -7 10 -15z m-660 -15 c0 -5 -5 -10 -11
-10 -5 0 -7 5 -4 10 3 6 8 10 11 10 2 0 4 -4 4 -10z m260 1 c0 -12 -29 -41
-40 -41 -5 0 -7 7 -4 15 4 8 13 15 21 15 8 0 11 5 8 10 -3 6 -1 10 4 10 6 0
11 -4 11 -9z m531 -20 c6 -14 5 -20 -1 -16 -6 3 -10 1 -10 -4 0 -26 -15 -8
-16 19 -1 35 15 35 27 1z m326 4 c0 -8 -4 -12 -9 -9 -5 3 -6 10 -3 15 9 13 12
11 12 -6z m-1889 -15 c-7 -10 -14 -17 -17 -15 -4 4 18 35 25 35 2 0 -1 -9 -8
-20z m1626 -1 c-9 -15 -34 -10 -28 5 3 8 12 12 20 9 8 -3 11 -9 8 -14z m-617
-41 c-3 -8 -6 -5 -6 6 -1 11 2 17 5 13 3 -3 4 -12 1 -19z"/>
<path d="M1845 2150 c3 -5 8 -10 11 -10 2 0 4 5 4 10 0 6 -5 10 -11 10 -5 0
-7 -4 -4 -10z"/>
<path d="M3020 2080 c0 -8 5 -22 10 -30 9 -13 10 -13 10 0 0 8 -5 22 -10 30
-9 13 -10 13 -10 0z"/>
<path d="M3020 1971 c0 -7 -6 -11 -14 -8 -8 3 -17 -1 -20 -9 -12 -31 -5 -34
21 -10 15 14 24 28 20 32 -4 4 -7 2 -7 -5z"/>
<path d="M2983 1903 c-28 -5 -30 -18 -4 -20 11 -1 22 5 25 13 3 8 4 13 3 13
-1 -1 -12 -4 -24 -6z"/>
<path d="M408 1813 c6 -2 18 -2 25 0 6 3 1 5 -13 5 -14 0 -19 -2 -12 -5z"/>
<path d="M588 1783 c12 -2 30 -2 40 0 9 3 -1 5 -23 4 -22 0 -30 -2 -17 -4z"/>
<path d="M758 1783 c7 -3 16 -2 19 1 4 3 -2 6 -13 5 -11 0 -14 -3 -6 -6z"/>
<path d="M2615 4690 c-19 -8 -19 -9 3 -9 12 -1 22 4 22 9 0 6 -1 10 -2 9 -2 0
-12 -4 -23 -9z"/>
<path d="M2660 4690 c0 -5 5 -10 10 -10 6 0 10 -14 10 -31 0 -31 1 -32 40 -26
23 3 43 1 46 -5 4 -7 10 -4 16 6 8 15 11 27 6 25 -2 -1 -25 11 -52 25 -52 27
-76 33 -76 16z"/>
<path d="M2635 4650 c-7 -12 2 -30 16 -30 5 0 9 9 9 20 0 21 -15 27 -25 10z"/>
<path d="M2669 4584 c-11 -14 16 -27 59 -29 34 -1 26 19 -13 31 -27 9 -37 8
-46 -2z"/>
<path d="M2760 4590 c0 -5 9 -10 20 -10 11 0 20 5 20 10 0 6 -9 10 -20 10 -11
0 -20 -4 -20 -10z"/>
<path d="M1887 3397 c-8 -6 -6 -7 5 -3 10 3 20 1 24 -5 4 -7 10 -6 18 0 7 6
16 8 19 4 4 -3 7 -1 7 5 0 14 -54 13 -73 -1z"/>
<path d="M2805 3400 c-7 -12 12 -12 40 0 18 8 17 9 -7 9 -15 1 -30 -3 -33 -9z"/>
<path d="M2180 3203 l-24 -5 24 -15 c14 -8 18 -12 9 -9 -48 14 -109 18 -109 6
0 -7 7 -10 15 -6 8 3 14 0 12 -7 -1 -8 17 -12 61 -13 34 -1 65 -4 69 -8 12
-11 40 -6 40 8 0 8 -7 11 -18 9 -9 -3 -26 0 -36 6 -15 8 -9 10 30 11 26 0 47
5 47 10 0 6 -12 10 -27 10 -16 0 -37 2 -48 4 -11 2 -31 2 -45 -1z"/>
<path d="M2328 3183 c7 -3 16 -2 19 1 4 3 -2 6 -13 5 -11 0 -14 -3 -6 -6z"/>
<path d="M1713 3133 c-33 -6 -28 -16 18 -35 22 -10 38 -22 35 -27 -3 -5 1 -8
9 -7 19 3 32 16 15 16 -8 0 -2 12 15 30 l29 30 -50 -1 c-27 -1 -59 -4 -71 -6z"/>
<path d="M1915 3097 c-19 -15 -13 -37 10 -37 9 0 11 7 7 22 -4 16 -2 19 8 13
9 -5 11 -4 6 3 -9 15 -8 15 -31 -1z"/>
<path d="M1685 3060 c-3 -5 -1 -10 4 -10 6 0 11 5 11 10 0 6 -2 10 -4 10 -3 0
-8 -4 -11 -10z"/>
<path d="M1883 3035 c-7 -8 -13 -19 -13 -25 0 -6 -5 -8 -12 -4 -7 5 -8 3 -3
-6 5 -9 14 -5 31 14 13 14 24 28 24 31 0 10 -15 4 -27 -10z"/>
<path d="M4514 2835 c-6 -53 -6 -89 0 -95 6 -6 4 -15 -4 -25 -9 -11 -10 -19
-3 -23 5 -4 12 -14 15 -22 3 -8 8 35 12 95 10 155 10 155 -2 155 -5 0 -13 -38
-18 -85z"/>
<path d="M4080 2700 c0 -5 5 -10 11 -10 5 0 7 5 4 10 -3 6 -8 10 -11 10 -2 0
-4 -4 -4 -10z"/>
<path d="M2409 2673 c-13 -16 -12 -17 4 -4 9 7 17 15 17 17 0 8 -8 3 -21 -13z"/>
<path d="M2697 2663 c-12 -12 -7 -30 8 -30 10 0 12 4 5 12 -5 7 -7 15 -3 18 3
4 4 7 1 7 -2 0 -8 -3 -11 -7z"/>
<path d="M1303 2653 c9 -2 23 -2 30 0 6 3 -1 5 -18 5 -16 0 -22 -2 -12 -5z"/>
<path d="M1830 2641 c0 -6 9 -9 20 -8 11 1 20 5 20 9 0 4 -9 8 -20 8 -11 0
-20 -4 -20 -9z"/>
<path d="M4496 2573 c-7 -93 -8 -218 0 -211 4 4 33 242 34 281 0 4 -6 7 -14 7
-9 0 -15 -22 -20 -77z"/>
<path d="M2506 2623 c-6 -14 -5 -15 5 -6 7 7 10 15 7 18 -3 3 -9 -2 -12 -12z"/>
<path d="M1270 2590 c0 -12 27 -12 55 0 16 7 13 9 -17 9 -21 1 -38 -3 -38 -9z"/>
<path d="M2295 2590 c-3 -5 1 -10 9 -10 9 0 16 5 16 10 0 6 -4 10 -9 10 -6 0
-13 -4 -16 -10z"/>
<path d="M1408 2583 c6 -2 18 -2 25 0 6 3 1 5 -13 5 -14 0 -19 -2 -12 -5z"/>
<path d="M1468 2583 c6 -2 18 -2 25 0 6 3 1 5 -13 5 -14 0 -19 -2 -12 -5z"/>
<path d="M1578 2563 c7 -3 16 -2 19 1 4 3 -2 6 -13 5 -11 0 -14 -3 -6 -6z"/>
<path d="M1750 2550 c0 -5 5 -10 10 -10 6 0 10 5 10 10 0 6 -4 10 -10 10 -5 0
-10 -4 -10 -10z"/>
<path d="M1836 2535 c-15 -8 -41 -15 -57 -15 -37 0 -37 -15 -1 -28 25 -10 24
-10 -19 -11 -33 -1 -49 -6 -53 -17 -4 -10 -13 -13 -25 -9 -11 3 -22 2 -24 -2
-3 -5 5 -10 18 -11 12 -1 35 -6 50 -12 27 -10 27 -11 9 -25 -17 -13 -16 -14
24 -15 26 0 41 4 37 10 -3 6 0 10 8 10 8 0 20 7 27 15 11 13 7 15 -26 15 -48
0 -35 12 36 34 68 21 100 40 53 32 -18 -3 -33 -4 -33 -1 0 7 43 28 75 36 26 6
23 7 -20 8 -27 0 -63 -6 -79 -14z"/>
<path d="M2570 2500 c-9 -6 -10 -10 -3 -10 6 0 15 5 18 10 8 12 4 12 -15 0z"/>
<path d="M2290 2491 c0 -5 9 -7 20 -4 11 3 20 7 20 9 0 2 -9 4 -20 4 -11 0
-20 -4 -20 -9z"/>
<path d="M2280 2440 c-12 -7 -10 -9 7 -7 12 0 19 5 17 9 -6 10 -6 10 -24 -2z"/>
<path d="M338 2428 c5 -5 16 -8 23 -6 8 3 3 7 -10 11 -17 4 -21 3 -13 -5z"/>
<path d="M169 2411 c10 -7 1 -11 -35 -16 -75 -10 -76 -14 -2 -12 37 0 62 5 55
9 -8 5 -3 8 12 8 30 0 25 5 -14 14 -20 4 -25 4 -16 -3z"/>
<path d="M2022 2413 c-6 -2 -10 -9 -7 -13 7 -11 35 -2 35 11 0 10 -8 10 -28 2z"/>
<path d="M63 2403 c15 -2 37 -2 50 0 12 2 0 4 -28 4 -27 0 -38 -2 -22 -4z"/>
<path d="M1690 2400 c0 -5 5 -10 11 -10 5 0 7 5 4 10 -3 6 -8 10 -11 10 -2 0
-4 -4 -4 -10z"/>
<path d="M1398 2393 c7 -3 16 -2 19 1 4 3 -2 6 -13 5 -11 0 -14 -3 -6 -6z"/>
<path d="M2190 2390 c0 -5 4 -10 9 -10 6 0 13 5 16 10 3 6 -1 10 -9 10 -9 0
-16 -4 -16 -10z"/>
<path d="M1648 2383 c6 -2 18 -2 25 0 6 3 1 5 -13 5 -14 0 -19 -2 -12 -5z"/>
<path d="M2376 2373 c-6 -14 -5 -15 5 -6 7 7 10 15 7 18 -3 3 -9 -2 -12 -12z"/>
<path d="M1498 2363 c6 -2 18 -2 25 0 6 3 1 5 -13 5 -14 0 -19 -2 -12 -5z"/>
<path d="M20 2350 c36 -12 60 -12 60 0 0 6 -19 10 -42 9 -37 -1 -39 -2 -18 -9z"/>
<path d="M1305 2340 c-16 -4 -23 -9 -15 -10 25 -4 64 1 80 11 19 11 -21 10
-65 -1z"/>
<path d="M2606 2305 c-17 -13 -17 -15 -3 -15 9 0 21 -8 27 -17 9 -15 10 -14 4
6 -4 15 -1 27 7 32 11 7 11 9 -1 9 -8 -1 -24 -7 -34 -15z"/>
<path d="M13 2303 c9 -2 23 -2 30 0 6 3 -1 5 -18 5 -17 0 -22 -2 -12 -5z"/>
<path d="M218 2303 c7 -3 16 -2 19 1 4 3 -2 6 -13 5 -11 0 -14 -3 -6 -6z"/>
<path d="M1655 2300 c-16 -7 -17 -9 -3 -9 9 -1 20 4 23 9 7 11 7 11 -20 0z"/>
<path d="M75 2290 c3 -5 8 -10 11 -10 2 0 4 5 4 10 0 6 -5 10 -11 10 -5 0 -7
-4 -4 -10z"/>
<path d="M1488 2293 c6 -2 18 -2 25 0 6 3 1 5 -13 5 -14 0 -19 -2 -12 -5z"/>
<path d="M2127 2283 c-8 -12 30 -29 40 -19 4 3 -1 6 -9 6 -9 0 -18 5 -20 12
-3 9 -6 9 -11 1z"/>
<path d="M2214 2279 c-3 -5 -4 -9 -2 -10 30 -7 48 -7 52 0 3 5 -6 11 -19 14
-14 2 -28 0 -31 -4z"/>
<path d="M48 2273 c7 -3 16 -2 19 1 4 3 -2 6 -13 5 -11 0 -14 -3 -6 -6z"/>
<path d="M4303 2229 c-8 -31 -7 -39 5 -44 19 -7 18 -8 25 37 8 52 -16 58 -30
7z"/>
<path d="M443 2243 c9 -2 23 -2 30 0 6 3 -1 5 -18 5 -16 0 -22 -2 -12 -5z"/>
<path d="M2536 2235 c-9 -26 -7 -32 5 -12 6 10 9 21 6 23 -2 3 -7 -2 -11 -11z"/>
<path d="M510 2220 c-8 -5 -11 -12 -8 -16 10 -9 38 3 38 16 0 12 -10 13 -30 0z"/>
<path d="M1302 2212 c-65 -11 -89 -18 -78 -24 9 -5 21 -6 26 -3 6 3 10 2 10
-4 0 -5 15 -9 34 -8 19 1 32 5 30 8 -2 4 18 12 44 19 26 7 58 16 72 20 23 8
22 8 -10 8 -19 0 -77 -7 -128 -16z"/>
<path d="M2505 2220 c3 -5 8 -10 11 -10 2 0 4 5 4 10 0 6 -5 10 -11 10 -5 0
-7 -4 -4 -10z"/>
<path d="M2660 2220 c0 -5 -5 -10 -11 -10 -6 0 -22 -9 -36 -20 -32 -25 -50
-26 -32 -2 13 15 12 16 -4 3 -13 -10 -15 -17 -6 -27 9 -11 8 -14 -4 -14 -9 0
-19 -4 -22 -10 -11 -18 14 -11 35 10 11 11 28 20 38 20 9 0 22 4 28 8 12 8 29
52 20 52 -3 0 -6 -4 -6 -10z"/>
<path d="M2338 2213 c7 -3 16 -2 19 1 4 3 -2 6 -13 5 -11 0 -14 -3 -6 -6z"/>
<path d="M2550 2212 c0 -6 -11 -14 -25 -18 -14 -3 -25 -12 -25 -20 0 -8 -7
-14 -15 -14 -8 0 -15 -7 -15 -15 0 -11 6 -12 23 -6 12 5 21 16 19 25 -3 14 9
21 31 17 10 -2 21 28 13 36 -3 4 -6 1 -6 -5z"/>
<path d="M2330 2192 c0 -4 -14 -13 -31 -21 -40 -18 -32 -23 14 -9 33 10 53 38
27 38 -5 0 -10 -3 -10 -8z"/>
<path d="M2467 2179 c7 -7 15 -10 18 -7 3 3 -2 9 -12 12 -14 6 -15 5 -6 -5z"/>
<path d="M900 2176 c0 -2 7 -7 16 -10 8 -3 12 -2 9 4 -6 10 -25 14 -25 6z"/>
<path d="M1170 2170 c-8 -5 -29 -7 -47 -4 -19 3 -33 1 -33 -5 0 -5 -10 -12
-22 -14 -13 -3 4 -3 37 0 33 3 68 10 78 15 26 14 36 -1 13 -18 -25 -18 -7 -18
27 -1 l24 13 -25 12 c-31 14 -33 14 -52 2z"/>
<path d="M2158 2163 c7 -3 16 -2 19 1 4 3 -2 6 -13 5 -11 0 -14 -3 -6 -6z"/>
<path d="M2447 2151 c-4 -17 -3 -21 5 -13 5 5 8 16 6 23 -3 8 -7 3 -11 -10z"/>
<path d="M4289 2168 c0 -2 -10 -48 -20 -103 -39 -198 -62 -546 -38 -561 21
-13 30 14 44 132 8 65 19 151 24 189 9 56 31 300 31 336 0 8 -38 13 -41 7z"/>
<path d="M1350 2150 c0 -5 -6 -10 -13 -10 -7 0 -18 -9 -25 -20 -17 -27 -11
-25 29 10 19 16 28 30 22 30 -7 0 -13 -4 -13 -10z"/>
<path d="M2138 2138 c5 -5 19 -4 33 1 23 10 22 10 -8 8 -18 0 -29 -5 -25 -9z"/>
<path d="M2290 2125 c0 -8 2 -15 4 -15 2 0 6 7 10 15 3 8 1 15 -4 15 -6 0 -10
-7 -10 -15z"/>
<path d="M2444 2105 c-10 -8 -14 -14 -9 -14 6 0 19 6 29 14 11 8 15 15 10 15
-6 0 -19 -7 -30 -15z"/>
<path d="M2027 2093 c-12 -12 -7 -22 8 -17 8 4 15 10 15 15 0 11 -14 12 -23 2z"/>
<path d="M2060 2088 c0 -4 7 -8 15 -8 8 0 15 4 15 8 0 5 -7 9 -15 9 -8 0 -15
-4 -15 -9z"/>
<path d="M1288 2072 c-46 -21 -50 -35 -6 -20 24 9 33 8 36 0 5 -15 32 -16 32
-2 0 6 7 10 16 10 14 0 14 3 4 15 -15 19 -34 18 -82 -3z"/>
<path d="M2155 2060 c-3 -5 -1 -10 4 -10 6 0 11 5 11 10 0 6 -2 10 -4 10 -3 0
-8 -4 -11 -10z"/>
<path d="M2186 2045 c-11 -8 -16 -18 -11 -22 4 -5 10 -2 12 5 3 6 11 12 18 12
8 0 17 5 20 10 9 15 -17 11 -39 -5z"/>
<path d="M1150 2040 c0 -5 5 -10 11 -10 5 0 7 5 4 10 -3 6 -8 10 -11 10 -2 0
-4 -4 -4 -10z"/>
<path d="M2147 1999 c-4 -16 -3 -18 9 -8 7 6 11 15 8 20 -8 13 -11 11 -17 -12z"/>
<path d="M2030 1990 c0 -5 5 -10 11 -10 5 0 7 5 4 10 -3 6 -8 10 -11 10 -2 0
-4 -4 -4 -10z"/>
<path d="M2198 1986 c-10 -7 -15 -16 -12 -19 7 -7 44 14 44 25 0 12 -13 9 -32
-6z"/>
<path d="M1340 1981 c0 -6 5 -13 10 -16 6 -3 10 1 10 9 0 9 -4 16 -10 16 -5 0
-10 -4 -10 -9z"/>
<path d="M1395 1980 c-3 -5 0 -10 7 -11 7 0 4 -5 -7 -10 -20 -9 -20 -9 0 -6
11 1 21 10 23 20 4 18 -13 24 -23 7z"/>
<path d="M1960 1964 c0 -8 5 -12 10 -9 6 3 10 10 10 16 0 5 -4 9 -10 9 -5 0
-10 -7 -10 -16z"/>
<path d="M1200 1950 c-13 -9 -13 -10 0 -9 8 0 24 4 35 9 l20 9 -20 0 c-11 0
-27 -4 -35 -9z"/>
<path d="M1185 1933 c-22 -3 -44 -8 -49 -13 -11 -11 73 -2 94 10 8 5 11 9 5 8
-5 -1 -28 -3 -50 -5z"/>
</g>
</svg>
